<?xml version="1.0" encoding="utf-8"?>
<!-- Generator: Adobe Illustrator 27.5.0, SVG Export Plug-In . SVG Version: 6.00 Build 0)  -->
<svg version="1.1" id="Layer_1" xmlns="http://www.w3.org/2000/svg" xmlns:xlink="http://www.w3.org/1999/xlink" x="0px" y="0px"
	 viewBox="0 0 800 800" style="enable-background:new 0 0 800 800;" xml:space="preserve">
<g>
	<rect style="fill:#1B4D2E;" width="800" height="800"/>
	<g>
		<linearGradient id="SVGID_1_" gradientUnits="userSpaceOnUse" x1="0" y1="400" x2="800" y2="400">
			<stop  offset="0" style="stop-color:#444446"/>
			<stop  offset="1" style="stop-color:#000000"/>
		</linearGradient>
		<path style="fill:#23693eff;" d="M310.65,449.794c3.781,14.495,20.576,5.837,20.576,5.837s-13.392,0.879-5.584-12.086
			c7.808-12.964,21.162-0.362,18.928,6.093c-2.233,6.454,0.71,3.37,0.295,35.302c8.05-7.974,2.889-17.492,14.246-22.91
			c11.356-5.418,16.059,8.984,11.521,11.021c-4.538,2.041-8.268,13.01,6.124,5.429c14.392-7.582-3.256-12.968-11.064-20.363
			c-7.81-7.398,4.421-8.72,13.694-3.423c9.272,5.298,9.164,28.273,9.164,28.273c11.236-5.688,17.52-24.541,4.373-34.189
			c-13.15-9.649,3.146-4.779-2.251-10.373c-5.397-5.593-11.423-0.804-19.227,1.099c-7.806,1.898-3.05-5.366-3.05-5.366
			c12.684-19.962,50.558-6.662,32.172-14.764c-18.387-8.101-34.201,8.459-34.201,8.459c-1.409-19.568,19.859-27.191,13.103-26.884
			c-6.756,0.306-10.893,10.02-15.273,9.903c-4.383-0.118-5.014-10.094-5.014-10.094s-3.56,5.284-9.409-2.031
			c-5.848-7.315,7.185-8.995,7.185-8.995c-1.274-7.124,0.55-19.487,5.025-18.45c4.475,1.039-5.558,2.978,1.656,18.335
			c7.215,15.36,17.636-2.144,17.636-2.144c-17.943-9.259,2.846-33.662,2.846-33.662c-34.355-5.102-34.05,33.08-34.05,33.08
			c-7.225,2.121-22.166-2.234-3.408,14.194c18.758,16.431,11.306,25.548,11.306,25.548c-4.913-15.591-15.451-14.065-15.451-14.065
			c8.396,5.848,8.717,20.136,7.944,19.84c-0.774-0.295,1.612,2.161-9.752-11.012c-11.366-13.176-0.14-1.382-15.862-4.265
			c-15.724-2.88-14.583,12.158-14.583,12.158c21.82-6.749,23.336,5.558,23.336,5.558C324.943,427.347,306.87,435.297,310.65,449.794
			z M488.478,715.021c-6.491,1.046-28.252,6.285-10.497,28.023c20.662,25.305,15.603,39.223,16.023,54.405
			c0,0,18.56-16.869,1.689-51.03C483.417,721.563,486.103,716.136,488.478,715.021z M738.385,227.081
			c0.188,1.063,0.264,1.73,0.264,1.73S738.817,227.962,738.385,227.081z M450.4,554.778c-15.955-19.835-30.184-20.697-40.53,15.524
			c-10.35,36.219,24.144,31.906,24.144,31.906c-15.09-16.815-5.17-29.321,3.452-30.612c8.623-1.294,14.659,0.862,24.147,18.541
			c9.486,17.678-16.386,7.759,6.898,22.419c23.286,14.662,27.166,50.022,28.026,37.946c0.863-12.071-12.071-33.631-19.834-48.725
			c-7.761-15.091,6.467-34.063,6.467-34.063C468.511,578.494,466.354,574.612,450.4,554.778z M488.478,715.021
			c1.064-0.172,1.732-0.234,1.732-0.234S489.365,714.604,488.478,715.021z M724.627,173.794c4.574-3.875,7.446-33.028-6.719-47.126
			c-14.161-14.097-25.705-23.18-31.457-14.222c-5.751,8.957-8.769,29.676-18.352,36.59c-7.688,5.546,10.65,6.145,25.918,10.944
			C709.286,164.779,720.053,177.669,724.627,173.794z M707.115,234.838c24.64-12.699,30.113-10.111,31.27-7.757
			c-1.158-6.473-6.77-28.133-28.199-10.011c-24.945,21.097-38.948,16.276-54.121,16.96
			C656.065,234.03,673.252,252.295,707.115,234.838z M653.109,111.331c-16.389,3.658-12.398,39.443-26.461,55.715
			c-14.063,16.271-13.537,22.168-2.303,13.115c11.232-9.052,59.523-46.159,50.836-85.238
			C675.182,94.923,669.497,107.676,653.109,111.331z M606.896,146.716c0.333,19.399-2.408,31.678-2.408,31.678
			c3.331-2.587,13.601-18.795,18.578-47.986c4.982-29.19,19.065-19.729,36.549-33.108c17.487-13.377,10.481-28.443,10.481-28.443
			c-4.908,8.943-25.117,11.402-42.695,19.296C609.82,96.049,606.56,127.318,606.896,146.716z M599.45,203.526
			c0,0,7.764,0.902,12.841-10.599C612.291,192.927,603.57,194.141,599.45,203.526z M459.047,145.843
			c-8.224-5.473-11.58,11.282-17.617-0.536c-6.034-11.816-7.448-17.843-14.021-16.113c-6.575,1.727-13.316-11.578-43.378-12.259
			c-30.062-0.682-7.434,5.563,3.844,12.052c11.278,6.491-3.043,12.214,1.816,19.178c4.858,6.964,7.356-1.886,11.275,3.436
			c3.918,5.323-4.46,3.135,1.025,11.193c5.486,8.059,8.46,5.629,7.836,10.643c-0.623,5.009-5.701,17.224,7.926,25.278
			c13.625,8.053,35.238,14.298,67.045,49.033l-2.247-6.47c0,0-6.381-18.259-33.951-38.984c-27.572-20.724-9.102-29.116-46.159-68.7
			c0,0-4.081-13.225,12.998,4.924c17.08,18.148,17.478,28.247,20.144,36.466c2.669,8.216,11.961-23.573,19.719-12.306
			c7.761,11.266-25.034,22.329-4.985,30.926c20.043,8.594,10.417,7.272,14.006-8.31
			C467.909,169.711,467.268,151.315,459.047,145.843z M426.525,25.709c16.026,14.341,21.933,13.919,13.076,2.532
			C435.766,23.309,426.781,11.338,414.65,0H371.78C377.233,14.516,411.078,11.887,426.525,25.709z M88.11,0h-8.552
			c-3.47,25.835,0.619,48.144,0.619,48.144C82.306,24.378,85.677,8.823,88.11,0z M341.145,46.177
			c10.998,4.642,38.917,21.617,56.539,5.617c0,0-16.956,5.22-38.681-7.346c-21.723-12.568-32.617-17.797-37.006-1.307
			C317.608,59.634,330.147,41.538,341.145,46.177z M147.331,50.898c-10.606-11.819-3.636-20.608,2.424-21.516
			c6.061-0.909,10.304,0.606,16.97,13.03c6.667,12.425-11.516,5.455,4.848,15.758c16.365,10.305,19.092,35.153,19.698,26.668
			c0.606-8.486-8.485-23.637-13.94-34.244c-5.455-10.606,4.546-23.94,4.546-23.94c-10.304,7.577-11.819,4.848-23.031-9.091
			c-11.212-13.94-21.212-14.547-28.486,10.91C123.087,53.928,147.331,50.898,147.331,50.898z M170.362,16.048
			c0,0-2.316-7.12,2.772-16.048h-18.465C156.521,7.374,161.41,13.476,170.362,16.048z M80.343,358.031
			c8.507,0.003,18.243-16.501,11.688-14.656c-18.915,5.327-27.243-9.856-46.137-4.831C27.531,343.424,7.917,325.845,0,350.015
			v35.021c1.921-2.691,4.052-5.66,6.431-8.92C31.706,341.474,71.837,358.03,80.343,358.031z M20.58,376.817
			C6.841,390.151-2.047,401.06,6.438,406.717c8.485,5.656,28.284,8.888,34.749,18.182c5.185,7.455,6.061-10.1,10.909-24.647
			c4.849-14.545,17.375-24.647,13.738-29.09C62.197,366.716,34.317,363.484,20.58,376.817z M235.673,99.457
			c10.803,6.219-2.917,11.702,1.737,18.374c4.653,6.672,7.048-1.806,10.802,3.292c3.754,5.099-4.272,3.003,0.982,10.724
			c5.256,7.72,8.104,5.394,7.508,10.195c-0.595,4.798-5.462,16.501,7.592,24.217c13.055,7.715,33.759,13.698,64.232,46.975
			l-2.153-6.198c0,0-6.112-17.494-32.526-37.349c-26.414-19.855-8.72-27.894-44.222-65.815c0,0-3.909-12.67,12.453,4.717
			c16.363,17.386,16.746,27.061,19.3,34.934c2.555,7.872,11.458-22.583,18.889-11.789c7.434,10.794-23.981,21.393-4.775,29.628
			c19.203,8.233,9.978,6.967,13.417-7.961c3.439-14.928,2.825-32.552-5.052-37.794c-7.879-5.244-11.094,10.808-16.876-0.514
			c-5.783-11.32-7.138-17.094-13.436-15.438c-6.298,1.655-12.756-11.09-41.556-11.744C203.189,87.257,224.866,93.241,235.673,99.457
			z M122.401,437.828c0,0,17.779-16.161,1.616-48.889c-11.759-23.813-9.188-29.012-6.915-30.08
			c-6.219,1.001-27.063,6.021-10.056,26.847C126.845,409.95,121.996,423.283,122.401,437.828z M117.103,358.859
			c1.021-0.165,1.662-0.225,1.662-0.225S117.954,358.46,117.103,358.859z M179.573,531.771
			c16.365,10.305,19.092,35.153,19.698,26.669c0.606-8.486-8.485-23.638-13.94-34.244c-5.455-10.606,4.546-23.94,4.546-23.94
			c-10.304,7.576-11.819,4.849-23.031-9.091c-11.212-13.94-21.212-14.547-28.486,10.909c-7.273,25.455,16.97,22.425,16.97,22.425
			c-10.606-11.818-3.636-20.607,2.424-21.516c6.061-0.909,10.304,0.607,16.97,13.03C181.392,528.438,163.21,521.467,179.573,531.771
			z M624.591,194.499c0,0,22.553-13.043,40.817-5.765c18.264,7.28,29.276,10.042,53.48-5.138
			C718.889,183.597,664.9,134.752,624.591,194.499z M476.716,68.727c4.638-16.448,1.266-18.555,1.266-18.555
			c-3.378,16.87-13.497,6.747-13.497,6.747c1.685,13.074-16.026,8.436-16.026,8.436c43.442,23.196,46.812,69.166,53.139,107.124
			c6.327,37.96-6.43,86.566-6.43,86.566c-0.633-4.428-5.695-2.531-5.695-2.531c5.695,30.683-23.724,61.049-35.11,96.162
			c-11.387,35.111-4.429,73.068-4.429,73.068c3.796-42.387,11.388-59.786,11.388-59.786c47.764-29.415,72.753-10.438,90.467-9.487
			c17.711,0.948,20.56-13.603,23.091-18.664c2.53-5.062,3.797-0.95,13.919-5.062c10.122-4.111,0.947-7.276,7.906-9.805
			c6.959-2.532,3.795,7.275,12.653,3.794c8.857-3.478-0.948-17.713,13.6-16.764c14.552,0.949,39.541,9.174,11.073-8.856
			c-28.472-18.03-43.02-9.807-48.081-15.501c-5.063-5.693-10.122-0.947-23.092,6.327c-12.969,7.276-5.694-10.439-16.765-10.439
			c-11.071,0-23.092,16.765-29.417,33.53c-6.326,16.764-16.133,12.02,7.909,16.448c24.039,4.43,0.316-26.253,14.551-31.947
			c14.232-5.693,3.162,29.734,10.753,23.724c7.591-6.011,14.235-15.185,41.438-21.509c27.204-6.327,15.185,3.479,15.185,3.479
			c-59.153,13.918-47.133,33.213-85.723,35.428c-38.59,2.213-55.883,15.289-55.883,15.289
			c28.68-83.93,97.319-119.99,108.077-127.265c10.753-7.274,52.508-3.162,33.844-7.907c-18.661-4.747-1.268-6.011-11.39-13.603
			c-10.12-7.592-7.271-26.885-10.12-13.285c-2.847,13.602,3.163,17.396-30.998,37.959c-34.163,20.559-52.511,44.6-52.511,44.6
			C535.338,127.773,472.075,85.177,476.716,68.727z M751.924,676.356c14.662-9.919,15.954-20.7,15.954-22.422
			c0-1.726-7.763,10.778-21.128,16.813c-13.367,6.04-6.471,28.031-6.471,28.031S737.263,686.271,751.924,676.356z M774.346,671.178
			c-25.871,15.957-38.377,70.285-0.863,81.066c0,0-6.465-19.835,18.543-38.807c3.168-2.404,5.808-5.206,7.975-8.297v-61.842
			c-1.975-3.708-4.229-6.983-6.682-9.633C793.318,633.666,800.217,655.225,774.346,671.178z M676.506,628.425
			c7.926-13.571-13.508-0.396-5.649-7.524c7.854-7.135-0.429-8.416-0.429-8.416c-20.641-2.666-33.232,24.088-33.232,24.088
			c-6.039-58.278,28.8-47.426,28.8-47.426c-31.22-29.918-42.568,19.713-42.568,19.713s-27.608-21.037-26.716-49.338
			c0.894-28.3,20.388-55.384,38.794-54.394c18.407,0.987,14.36,22.813,7.097,22.253c-7.266-0.559-19.755,10.941,4.073,11.275
			c23.83,0.331,4.9-18.966,0.039-33.953c-4.864-14.99,11.799-8.119,20.016,5.193c8.214,13.316-8.026,42.797-8.026,42.797
			c18.441,0.56,39.74-19.29,29.588-40.918c-10.153-21.632,7.396-3.944,4.375-14.922c-3.023-10.979-14.133-9.041-25.505-12.066
			c-11.374-3.027-0.164-9.04-0.164-9.04c30.31-16.791,69.712,26.865,51.737,3.556c-17.979-23.306-49.928-13.087-49.928-13.087
			c11.902-26.163,44.606-21.062,35.699-25.403c-8.907-4.341-21.037,5.256-26.59,2.034c-5.557-3.222,0.625-16.5,0.625-16.5
			s-8.283,4.304-10.682-9.206c-2.396-13.51,15.549-6.537,15.549-6.537c3.354-10.058,14.367-24.684,19.396-20.214
			c5.028,4.472-9.237-0.065-10.721,24.748c-1.482,24.818,24.191,9.603,24.191,9.603c-16.594-24.488,27.254-41.311,27.254-41.311
			c-40.621-30.641-66.988,18.693-66.988,18.693c-10.781-2.335-26.952-18.41-14.333,15.872c12.615,34.284-3.361,40.79-3.361,40.79
			c4.606-23.5-10.021-28.925-10.021-28.925c6.703,13.409-2.898,32.016-3.686,31.094c-0.787-0.922,0.56,3.909-4.828-21.003
			c-5.388-24.916,0.789-1.875-17.419-16.603c-18.208-14.725-27.281,5.419-27.281,5.419c32.802,6.612,26.127,23.506,26.127,23.506
			c-5.882-15.712-34.706-18.149-40.002,3.15c-5.295,21.297,22.38,21.928,22.38,21.928s-17.846-8.256,1.286-19.459
			c19.131-11.206,27.478,14.365,20.079,21.104c-7.396,6.737-1.448,4.831-24.362,45.621c-22.915,40.788-0.271,64.882,10.572,80.332
			c10.845,15.449,11.045-3.875,18.139,35.141c7.096,39.016-12.995,84.965-12.995,84.965s9.245-66.987,1.951-86.675
			c-7.293-19.69-22.548,2.56-22.548,2.56s0.032-3.222-15.644-0.56c-15.682,2.659,13.57,7.922,19.289,22.978
			c5.719,15.053-10.226,9.956-10.226,9.956c0.335-21.037-19.75-19.791-25.997-16.831c-6.245,2.956,6.147,6.706,0.855,8.446
			c-5.293,1.741-26.067,17.547-8.455,37.176c17.615,19.625,33.56-6.013,33.56-6.013s-12.293,14.528-15.578-4.21
			c-3.284-18.734,33.629-23.628,37.733,9.572c4.103,33.197-2.997,41.678-19.96,55.412c-16.962,13.738-60.415,14.26-60.415,14.26
			c52.951,7.303,80.794-13.763,95.36-52.185c14.566-38.422,8.619-50.487,15.031-66.756c6.411-16.269,30.044-27.341,37.996,0.565
			c7.951,27.906-20.382,7.888-20.382,7.888s8.245,46.409,33.362,16.109C717.886,646.443,676.506,628.425,676.506,628.425z
			 M355.249,775.94c0,0,12.652,5.906,16.027,22.354c0.122,0.596,0.299,1.16,0.504,1.705h42.871
			C398.768,785.156,377.486,771.398,355.249,775.94z M453.939,28.241c0,0-7.58-13.658-7.48-28.241h-17.35
			C433.263,9.524,440.978,19.167,453.939,28.241z M757.611,481.602c-4.205,15.8,7.808-1.537,18.345,2.908
			c5.151,2.175,14.187,7.17,24.044,9.918v-8.092c-2.242-0.964-4.557-2.107-6.935-3.482
			C772.253,470.813,761.815,465.803,757.611,481.602z M783.4,1.4c-0.238-0.463-0.455-0.93-0.653-1.4h-13.466
			c-3.072,3.588-9.842,2.251,5.927,12.178c14.38,9.055,21.354,25.991,24.792,34.786V34.996C795.815,24.02,788.502,11.319,783.4,1.4z
			 M764.416,421.667c8.485,4.849,10.506,24.244,17.777,41.214c2.958,6.897,9.653,11.593,17.807,14.734v-26.59
			c-1.886-5.455-3.339-11.843-8.513-18.852C778.963,415.203,764.416,421.667,764.416,421.667z M600.07,138.658
			c0,0-5.51-16.864,6.68-38.801c12.193-21.938,17.232-32.92,0.67-37.024c-16.566-4.105,1.744,8.122-2.706,19.197
			C600.263,93.105,583.771,121.313,600.07,138.658z M658.05,226.826c24.972,5.053,55.525-33.437,72.508-26.979
			c0,0-2.281-10.084-23.212-0.868c-20.935,9.219-23.924,7.161-40.07,0.269c-16.146-6.894-52.93,12.721-52.93,12.721
			S633.075,221.772,658.05,226.826z M718.389,111.889c36.609,25.756,20.054,67.935,20.202,76.814
			c0.149,8.879,17.548,18.743,15.503,11.935c-5.897-19.645,9.8-28.611,4.216-48.239c-5.583-19.627,13.646-41.07-15.101-48.341
			c-28.75-7.271-12.387-16.832-31.917-18.849c-19.532-2.014-0.639-23.16-15.94-9.739C680.044,88.889,681.778,86.133,718.389,111.889
			z M780.756,382.475c-2.251,18.675-22.193,0.228-9.59,15.109c11.417,13.481,10.348,13.348,28.834-12.548v-35.023
			c-0.229,0.701-0.453,1.426-0.662,2.198C791.9,379.631,783.01,363.798,780.756,382.475z M789.469,417.222
			c0,0,5.87,2.755,10.531,9.739v-10.529C796.528,416.261,793.011,416.498,789.469,417.222z M371.573,632.486
			c-5.65-18.82,9.386-27.41,4.038-46.215c-5.347-18.803,13.072-39.347-14.467-46.313c-27.544-6.965-11.867-16.125-30.579-18.058
			c-18.711-1.93-0.61-22.188-15.272-9.329c-14.663,12.855-13.001,10.215,22.072,34.891c35.072,24.675,19.21,65.084,19.353,73.59
			C356.862,629.56,373.53,639.01,371.573,632.486z M429.109,800h17.35c0.03-4.25,0.707-8.578,2.419-12.67
			c7.591-18.137,10.542-29.101-4.217-53.564C444.661,733.766,414.347,766.136,429.109,800z M346.156,739.672
			c-2.351,19.494-23.167,0.239-10.012,15.772c13.155,15.533,10.429,13.754,36.812-22.409c26.381-36.161,68.272-18.878,77.148-18.876
			c8.882,0.004,19.044-17.226,12.2-15.299c-19.742,5.56-28.436-10.287-48.159-5.044c-19.721,5.242-40.83-14.35-48.594,14.266
			C357.787,736.703,348.509,720.178,346.156,739.672z M356.522,657.82c-1.11-6.203-6.487-26.953-27.016-9.591
			c-23.898,20.211-37.314,15.593-51.85,16.247c0,0,16.465,17.498,48.91,0.775C350.169,653.086,355.414,655.564,356.522,657.82z
			 M434.961,727.862c-3.797-4.641-32.898-8.013-47.237,5.903c-14.34,13.92-23.619,25.307-14.762,31.211
			c8.857,5.904,29.524,9.276,36.271,18.978c5.414,7.781,6.327-10.543,11.388-25.727C425.68,743.045,438.756,732.5,434.961,727.862z
			 M461.111,722.38c0,0-10.124,2.109-1.266,23.195c8.855,21.089,6.745,24.042-0.426,40.067c-1.717,3.84-1.923,8.897-1.259,14.357
			h27.578c0.383-1.525,0.748-3.078,1.097-4.658C492.318,770.459,454.361,739.25,461.111,722.38z M235.722,625.1
			c0,0-8.357,1.163-12.302,10.153C223.419,635.253,230.858,636.117,235.722,625.1z M281.058,533.486
			c16.753-12.816,10.039-27.249,10.039-27.249c-4.701,8.567-24.059,10.922-40.901,18.486c-16.842,7.563-19.964,37.52-19.643,56.104
			c0.319,18.584-2.307,30.349-2.307,30.349c3.191-2.479,13.026-18.007,17.798-45.972
			C250.815,537.239,264.306,546.303,281.058,533.486z M349.024,631.729c0,0-2.187-9.661-22.241-0.83
			c-20.054,8.831-22.917,6.859-38.386,0.256c-15.469-6.604-50.708,12.188-50.708,12.188s17.944,9.391,41.87,14.233
			C303.483,662.416,332.752,625.542,349.024,631.729z M356.522,657.82c0.182,1.018,0.253,1.658,0.253,1.658
			S356.936,658.664,356.522,657.82z M485.739,0h-27.578c2.107,17.33,13.07,38.784,13.07,38.784S480.109,22.505,485.739,0z
			 M757.097,754.4c-15.954-19.835-30.183-20.697-40.529,15.524c-5.469,19.136,1.583,26.953,9.448,30.075h13.144
			c-12.803-15.885-3.303-27.537,5.003-28.781c8.624-1.294,14.66,0.862,24.147,18.541c3.063,5.706,2.435,8.529,0.972,10.24h13.466
			c-6.247-14.838,7.12-32.662,7.12-32.662C775.208,778.115,773.052,774.234,757.097,754.4z M256.546,728.747
			c-27.274-17.273-41.213-9.395-46.063-14.851c-4.848-5.454-9.697-0.907-22.122,6.062c-12.424,6.97-5.455-10-16.061-10
			c-10.606,0-22.122,16.061-28.183,32.122c-6.061,16.061-15.455,11.516,7.576,15.758c23.031,4.243,0.303-25.152,13.94-30.607
			c13.637-5.455,3.03,28.485,10.303,22.728c7.273-5.758,13.637-14.547,39.698-20.605c26.061-6.062,14.546,3.332,14.546,3.332
			c-56.668,13.335-45.153,31.819-82.124,33.942c-36.971,2.12-53.537,14.646-53.537,14.646
			c27.475-80.406,93.235-114.953,103.539-121.924c10.303-6.969,50.305-3.029,32.425-7.574c-17.88-4.547-1.212-5.758-10.909-13.031
			c-9.697-7.273-6.971-25.758-9.697-12.728c-2.728,13.031,3.03,16.667-29.698,36.365c-32.728,19.697-50.305,42.728-50.305,42.728
			c32.123-142.428-28.485-183.237-24.04-198.997c4.444-15.758,1.211-17.776,1.211-17.776c-3.232,16.162-12.929,6.464-12.929,6.464
			c1.616,12.525-15.354,8.081-15.354,8.081c41.617,22.224,44.849,66.265,50.91,102.629c6.061,36.365-6.162,82.933-6.162,82.933
			c-0.606-4.242-5.455-2.425-5.455-2.425c5.455,29.395-22.728,58.487-33.638,92.125c-2.365,7.29-3.901,14.709-4.861,21.857h8.552
			c1.724-6.253,2.977-9.131,2.977-9.131c45.758-28.182,69.698-10,86.669-9.091c16.97,0.909,19.698-13.031,22.122-17.88
			c2.424-4.849,3.637-0.909,13.334-4.849c9.698-3.938,0.909-6.97,7.577-9.393c6.667-2.425,3.636,6.971,12.121,3.636
			c8.485-3.333-0.91-16.97,13.03-16.061C259.879,738.141,283.819,746.021,256.546,728.747z M740.711,1.831
			c-0.553-0.617-1.064-1.227-1.552-1.831h-13.144C733.039,2.786,740.711,1.831,740.711,1.831z M788.143,750.519
			c4.344-0.763,8.276-1.727,11.857-2.854v-23.688C785.341,741.037,788.143,750.519,788.143,750.519z M329.1,780.581
			c4.913,2.807,7.749,10.292,10.596,19.419h22.549c-1.194-2.7-2.727-5.521-4.888-8.451C344.283,773.834,329.1,780.581,329.1,780.581
			z M230.413,535.935c11.681-21.017,16.51-31.539,0.642-35.47c-15.87-3.933,1.672,7.781-2.593,18.391
			c-4.264,10.61-20.065,37.634-4.449,54.251C224.013,573.107,218.734,556.951,230.413,535.935z M30.121,489.891
			c0,0-12.747,3.912-30.121-3.555v8.092C10.298,497.302,21.496,497.722,30.121,489.891z M113.579,677.619l-2.155-6.199
			c0,0-6.113-17.493-32.526-37.348c-26.413-19.856-8.72-27.895-44.222-65.816c0,0-3.91-12.67,12.453,4.718
			c16.362,17.386,16.744,27.061,19.3,34.935c2.555,7.871,11.458-22.583,18.89-11.789c7.434,10.793-23.982,21.392-4.776,29.628
			c19.204,8.232,9.979,6.967,13.418-7.961c3.438-14.929,2.825-32.552-5.052-37.794c-7.879-5.244-11.092,10.808-16.876-0.514
			c-5.783-11.32-7.137-17.094-13.435-15.438c-6.299,1.654-12.758-11.091-41.557-11.744c-28.799-0.654-7.121,5.33,3.684,11.545
			c10.804,6.219-2.917,11.702,1.738,18.374c4.654,6.672,7.048-1.807,10.802,3.292c3.754,5.099-4.272,3.003,0.983,10.724
			c5.255,7.72,8.103,5.394,7.507,10.195c-0.596,4.798-5.463,16.501,7.593,24.217C62.401,638.359,83.106,644.342,113.579,677.619z
			 M336.454,261.488c-25.071,4.406-32.69,16.453-5.954,42.991c26.733,26.539,39.595-5.755,39.595-5.755
			c-22.009,5.106-28.178-9.617-25.149-17.792c3.027-8.177,7.827-12.424,27.89-12.206c20.061,0.219-1.108,18.096,22.965,4.773
			c24.077-13.323,56.921,0.337,46.76-6.243c-10.157-6.58-35.282-5.651-52.248-6.133c-16.962-0.482-26.717-22.097-26.717-22.097
			C365.964,257.065,361.524,257.081,336.454,261.488z M486.622,434.044c0,0,6.898,21.56-18.974,37.513
			c-25.87,15.956-38.377,70.284-0.862,81.065c0,0-6.466-19.835,18.542-38.807C510.338,494.841,502.575,451.294,486.622,434.044z
			 M445.227,476.734c14.662-9.919,15.955-20.7,15.955-22.422c0-1.725-7.763,10.778-21.129,16.813
			c-13.367,6.041-6.47,28.031-6.47,28.031S430.565,486.65,445.227,476.734z M207.548,0h-21.561
			c-6.871,9.577-5.322,14.836-5.322,14.836C195.033,12.315,203.208,6.737,207.548,0z M462.533,53.531c0,0,1.035-7.747-10.377-13.023
			C452.156,40.508,453.221,49.252,462.533,53.531z M498.693,518.557c-20.696,20.699-17.248,32.34-17.248,32.34
			c73.736-12.934,33.203-82.355,33.203-82.355C519.393,482.338,519.393,497.862,498.693,518.557z M343.341,606.771
			c4.382-3.713,7.133-31.643-6.435-45.148c-13.568-13.507-24.627-22.208-30.138-13.625c-5.511,8.581-8.401,28.431-17.582,35.055
			c-7.364,5.313,10.204,5.886,24.831,10.484C328.645,598.133,338.96,610.482,343.341,606.771z M274.824,546.928
			c-15.7,3.504-11.876,37.788-25.348,53.377c-13.473,15.588-12.97,21.237-2.208,12.564c10.762-8.672,57.026-44.221,48.704-81.66
			C295.972,531.209,290.524,543.427,274.824,546.928z M405.859,45.111c19.403,0,31.633,2.953,31.633,2.953
			c-2.531-3.375-18.56-13.92-47.661-19.401C365.543,24.086,368.276,13.631,362.245,0h-22.549c2.287,7.328,4.58,15.712,7.961,23.602
			C355.249,41.314,386.458,45.111,405.859,45.111z M247.505,626.606c0,0,21.606-12.497,39.103-5.523
			c17.497,6.974,28.047,9.62,51.237-4.922C337.845,616.161,286.123,569.365,247.505,626.606z M48.905,194.55
			c-16.411-3.488-33.962,19.508-18.85,35.423c15.113,15.915,30.521-7.083,30.521-7.083s-16.554,10.611-15.716-11.544
			c0.837-22.156,26.886-15.444,28.59-5.586c1.705,9.86,3.296,3.819,25.37,45.068c22.073,41.25,54.563,35.111,73.421,34.274
			c18.857-0.84,2.668-11.397,39.381,3.596c36.712,14.992,64.656,56.634,64.656,56.634s-51.513-43.808-72.036-48.242
			c-20.524-4.435-9.963,20.389-9.963,20.389s-2.698-1.758-8.884,12.891c-6.186,14.652,13.978-7.185,29.746-3.913
			c15.767,3.273,2.9,13.975,2.9,13.975c-17.559-11.59-27.305,6.014-28.169,12.871c-0.864,6.857,8.959-1.577,7.582,3.821
			c-1.377,5.398,0.782,31.414,26.8,27.113c26.019-4.303,12.975-31.53,12.975-31.53s5.639,18.176-11.924,10.873
			c-17.564-7.303-1.845-41.057,28.354-26.671c30.199,14.387,33.532,24.934,35.996,46.621c2.463,21.687-20.459,58.606-20.459,58.606
			c34.626-40.722,31.832-75.522,7.266-108.461c-24.566-32.938-37.936-34.409-48.207-48.562
			c-10.271-14.152-6.903-40.033,20.902-31.735c27.806,8.299-4.307,21.425-4.307,21.425s43.567,18,31.519-19.469
			c-12.048-37.468-49.487-12.263-49.487-12.263c-7.186-13.978-7.597,11.177-9.386,0.719c-1.79-10.458-7.324-4.164-7.324-4.164
			c-13.345,15.971,2.444,40.972,2.444,40.972c-52.386-26.237-24.506-49.779-24.506-49.779c-42.009,10.243-6.261,46.493-6.261,46.493
			s-32.583,11.968-55.965-3.999c-23.384-15.966-35.738-46.964-25.009-61.952c10.728-14.99,26.956,0.155,22.579,5.979
			c-4.377,5.824-1.394,22.54,11.697,2.626c13.091-19.914-13.357-14.327-28.61-18.286c-15.252-3.958-0.499-14.313,15.143-14.085
			c15.642,0.231,31.769,29.775,31.769,29.775c10.387-15.246,5.101-43.879-18.595-46.946c-23.697-3.065,0.651-8.356-10.23-11.71
			c-10.883-3.354-15.221,7.056-23.887,15.02c-8.665,7.962-7.708-4.723-7.708-4.723c2.133-34.583,60.128-44.338,30.812-41.711
			c-29.316,2.628-37.877,35.061-37.877,35.061c-15.662-24.102,6.22-48.936-2.228-43.759c-8.448,5.177-6.877,20.564-12.581,23.516
			c-5.703,2.951-13.576-9.399-13.576-9.399s-0.824,9.299-13.504,4.058c-12.68-5.241,2.845-16.626,2.845-16.626
			c-6.677-8.235-13.088-25.384-6.616-27.221c6.473-1.836-5.022,7.753,15.105,22.343c20.128,14.592,21.101-15.235,21.101-15.235
			c-29.571,0.828-20.183-45.19-20.183-45.19c-47.673,17.78-20.252,66.535-20.252,66.535c-7.765,7.835-30.013,12.827,5.68,20.62
			c35.69,7.793,32.588,24.761,32.588,24.761c-17.34-16.517-29.778-7.101-29.778-7.101c14.913,1.558,25.437,19.654,24.237,19.823
			c-1.2,0.17,3.599,1.632-20.306-7.22c-23.905-8.852-1.156-1.672-23.363,5.762c-22.207,7.436-10.097,25.917-10.097,25.917
			C38.249,179.84,48.905,194.55,48.905,194.55z M178.968,432.677c-18.183,11.212-26.971,49.395-0.606,56.972
			c0,0-4.545-13.939,13.03-27.273c17.577-13.334,12.122-43.94,0.91-56.063C192.302,406.313,197.15,421.464,178.968,432.677z
			 M115.532,435.808c5.252-23.837-31.113-53.737-24.648-69.9c0,0-9.697,2.02-1.211,22.222c8.485,20.203,6.464,23.032-0.405,38.386
			c-6.869,15.354,11.314,50.911,11.314,50.911S110.28,459.647,115.532,435.808z M211.999,430.557
			c3.334,9.696,3.334,20.605-11.212,35.151c-14.546,14.547-12.122,22.728-12.122,22.728
			C240.484,479.346,211.999,430.557,211.999,430.557z M159.573,432.373c-9.395,4.244-4.546,19.699-4.546,19.699
			s-2.121-8.789,8.182-15.758c10.304-6.971,11.212-14.547,11.212-15.758C174.422,419.344,168.967,428.131,159.573,432.373z
			 M84.016,467.325c0,0-12.121-21.82-4.849-39.194c7.273-17.373,10.101-27.878-4.04-51.314
			C75.127,376.817,27.448,427.727,84.016,467.325z M57.752,464.9c15.354,13.738,21.011,13.334,12.526,2.425
			c-7.685-9.882-36.916-49.26-70.278-50.894v10.529c2.034,3.047,3.84,6.889,4.822,11.677C8.054,454.396,42.397,451.161,57.752,464.9
			z M92.248,491.555c0,0,0.993-7.422-9.94-12.477C82.308,479.078,83.327,487.455,92.248,491.555z M68.258,486.315
			c-2.424-3.232-17.779-13.334-45.659-18.586C6.236,464.647,2.68,458.776,0,451.025v26.592c11.906,4.589,26.923,5.87,37.954,5.87
			C56.541,483.487,68.258,486.315,68.258,486.315z"/>
	</g>
</g>
</svg>
